<svg width="29" height="28" viewBox="0 0 29 28" fill="none" xmlns="http://www.w3.org/2000/svg">
<path d="M20.0091 7.00002V20.4167C20.0091 22.995 17.9208 25.0834 15.3424 25.0834C12.7641 25.0834 10.6758 22.995 10.6758 20.4167V5.83335C10.6758 4.22335 11.9824 2.91669 13.5924 2.91669C15.2024 2.91669 16.5091 4.22335 16.5091 5.83335V18.0834C16.5091 18.725 15.9841 19.25 15.3424 19.25C14.7008 19.25 14.1758 18.725 14.1758 18.0834V7.00002H12.4258V18.0834C12.4258 19.6934 13.7324 21 15.3424 21C16.9524 21 18.2591 19.6934 18.2591 18.0834V5.83335C18.2591 3.25502 16.1708 1.16669 13.5924 1.16669C11.0141 1.16669 8.92578 3.25502 8.92578 5.83335V20.4167C8.92578 23.9634 11.7958 26.8334 15.3424 26.8334C18.8891 26.8334 21.7591 23.9634 21.7591 20.4167V7.00002H20.0091Z" fill="#5D5FEF"/>
</svg>
