<svg width="64" height="64" viewBox="0 0 64 64" fill="none" xmlns="http://www.w3.org/2000/svg">
<rect width="64" height="64" rx="7" fill="#5865F2"/>
<path d="M15.875 53H10.625C10.3266 53 10.0405 52.8815 9.8295 52.6705C9.61853 52.4595 9.5 52.1734 9.5 51.875V16.625C9.5 16.3266 9.61853 16.0405 9.8295 15.8295C10.0405 15.6185 10.3266 15.5 10.625 15.5H15.875C16.1734 15.5 16.4595 15.6185 16.6705 15.8295C16.8815 16.0405 17 16.3266 17 16.625V51.875C17 52.1734 16.8815 52.4595 16.6705 52.6705C16.4595 52.8815 16.1734 53 15.875 53ZM30.5 27.5V22.625C30.5 22.3266 30.3815 22.0405 30.1705 21.8295C29.9595 21.6185 29.6734 21.5 29.375 21.5H19.625C19.3266 21.5 19.0405 21.6185 18.8295 21.8295C18.6185 22.0405 18.5 22.3266 18.5 22.625V27.5H30.5ZM18.5 47V51.875C18.5 52.1734 18.6185 52.4595 18.8295 52.6705C19.0405 52.8815 19.3266 53 19.625 53H29.375C29.6734 53 29.9595 52.8815 30.1705 52.6705C30.3815 52.4595 30.5 52.1734 30.5 51.875V47H18.5ZM18.5 30.5H30.5V44H18.5V30.5ZM39.875 53H33.125C32.8266 53 32.5405 52.8815 32.3295 52.6705C32.1185 52.4595 32 52.1734 32 51.875V12.125C32 11.8266 32.1185 11.5405 32.3295 11.3295C32.5405 11.1185 32.8266 11 33.125 11H39.875C40.1734 11 40.4595 11.1185 40.6705 11.3295C40.8815 11.5405 41 11.8266 41 12.125V51.875C41 52.1734 40.8815 52.4595 40.6705 52.6705C40.4595 52.8815 40.1734 53 39.875 53ZM42.5938 17.4406L45.4063 51.9247C45.4187 52.0759 45.4617 52.223 45.5325 52.3572C45.6033 52.4914 45.7005 52.6099 45.8183 52.7055C45.9361 52.8012 46.0721 52.872 46.2179 52.9137C46.3638 52.9555 46.5166 52.9673 46.6672 52.9484L53.4322 52.1047C53.7202 52.0687 53.9832 51.9227 54.1661 51.6973C54.349 51.472 54.4378 51.1846 54.4138 50.8953L51.5938 16.5509C51.5813 16.4018 51.5393 16.2566 51.47 16.1239C51.4008 15.9912 51.3058 15.8736 51.1905 15.7781C51.0753 15.6826 50.9421 15.611 50.7989 15.5676C50.6556 15.5242 50.5051 15.5098 50.3563 15.5253L43.5941 16.2294C43.3023 16.2609 43.0344 16.4052 42.8475 16.6315C42.6606 16.8578 42.5696 17.1481 42.5938 17.4406Z" fill="#E7E7E7"/>
</svg>
