<svg width="64" height="64" viewBox="0 0 64 64" fill="none" xmlns="http://www.w3.org/2000/svg">
<rect width="64" height="64" rx="6" fill="#E7E7E7"/>
<path d="M32 24C33.5913 24 35.1174 23.3679 36.2426 22.2426C37.3679 21.1174 38 19.5913 38 18C38 16.4087 37.3679 14.8826 36.2426 13.7574C35.1174 12.6321 33.5913 12 32 12C30.4087 12 28.8826 12.6321 27.7574 13.7574C26.6321 14.8826 26 16.4087 26 18C26 19.5913 26.6321 21.1174 27.7574 22.2426C28.8826 23.3679 30.4087 24 32 24ZM32 31.08C27.28 26.7 21 24 14 24V46C21 46 27.28 48.7 32 53.08C36.72 48.7 43 46 50 46V24C43 24 36.72 26.7 32 31.08Z" fill="#5865F2"/>
</svg>
