<svg width="64" height="64" viewBox="0 0 64 64" fill="none" xmlns="http://www.w3.org/2000/svg">
<circle cx="32" cy="32" r="32" fill="#454545"/>
<path d="M20.268 28.12V37H18.9V28.12H20.268ZM24.9321 37.108C24.3081 37.108 23.7441 36.968 23.2401 36.688C22.7361 36.4 22.3401 36 22.0521 35.488C21.7641 34.968 21.6201 34.368 21.6201 33.688C21.6201 33.016 21.7681 32.42 22.0641 31.9C22.3601 31.38 22.7641 30.98 23.2761 30.7C23.7881 30.42 24.3601 30.28 24.9921 30.28C25.6241 30.28 26.1961 30.42 26.7081 30.7C27.2201 30.98 27.6241 31.38 27.9201 31.9C28.2161 32.42 28.3641 33.016 28.3641 33.688C28.3641 34.36 28.2121 34.956 27.9081 35.476C27.6041 35.996 27.1881 36.4 26.6601 36.688C26.1401 36.968 25.5641 37.108 24.9321 37.108ZM24.9321 35.92C25.2841 35.92 25.6121 35.836 25.9161 35.668C26.2281 35.5 26.4801 35.248 26.6721 34.912C26.8641 34.576 26.9601 34.168 26.9601 33.688C26.9601 33.208 26.8681 32.804 26.6841 32.476C26.5001 32.14 26.2561 31.888 25.9521 31.72C25.6481 31.552 25.3201 31.468 24.9681 31.468C24.6161 31.468 24.2881 31.552 23.9841 31.72C23.6881 31.888 23.4521 32.14 23.2761 32.476C23.1001 32.804 23.0121 33.208 23.0121 33.688C23.0121 34.4 23.1921 34.952 23.5521 35.344C23.9201 35.728 24.3801 35.92 24.9321 35.92ZM32.3804 30.28C32.8924 30.28 33.3444 30.384 33.7364 30.592C34.1364 30.792 34.4484 31.044 34.6724 31.348V30.388H36.0524V37.108C36.0524 37.716 35.9244 38.256 35.6684 38.728C35.4124 39.208 35.0404 39.584 34.5524 39.856C34.0724 40.128 33.4964 40.264 32.8244 40.264C31.9284 40.264 31.1844 40.052 30.5924 39.628C30.0004 39.212 29.6644 38.644 29.5844 37.924H30.9404C31.0444 38.268 31.2644 38.544 31.6004 38.752C31.9444 38.968 32.3524 39.076 32.8244 39.076C33.3764 39.076 33.8204 38.908 34.1564 38.572C34.5004 38.236 34.6724 37.748 34.6724 37.108V36.004C34.4404 36.316 34.1244 36.58 33.7244 36.796C33.3324 37.004 32.8844 37.108 32.3804 37.108C31.8044 37.108 31.2764 36.964 30.7964 36.676C30.3244 36.38 29.9484 35.972 29.6684 35.452C29.3964 34.924 29.2604 34.328 29.2604 33.664C29.2604 33 29.3964 32.412 29.6684 31.9C29.9484 31.388 30.3244 30.992 30.7964 30.712C31.2764 30.424 31.8044 30.28 32.3804 30.28ZM34.6724 33.688C34.6724 33.232 34.5764 32.836 34.3844 32.5C34.2004 32.164 33.9564 31.908 33.6524 31.732C33.3484 31.556 33.0204 31.468 32.6684 31.468C32.3164 31.468 31.9884 31.556 31.6844 31.732C31.3804 31.9 31.1324 32.152 30.9404 32.488C30.7564 32.816 30.6644 33.208 30.6644 33.664C30.6644 34.12 30.7564 34.52 30.9404 34.864C31.1324 35.208 31.3804 35.472 31.6844 35.656C31.9964 35.832 32.3244 35.92 32.6684 35.92C33.0204 35.92 33.3484 35.832 33.6524 35.656C33.9564 35.48 34.2004 35.224 34.3844 34.888C34.5764 34.544 34.6724 34.144 34.6724 33.688ZM40.7172 37.108C40.0932 37.108 39.5292 36.968 39.0252 36.688C38.5212 36.4 38.1252 36 37.8372 35.488C37.5492 34.968 37.4052 34.368 37.4052 33.688C37.4052 33.016 37.5532 32.42 37.8492 31.9C38.1452 31.38 38.5492 30.98 39.0612 30.7C39.5732 30.42 40.1452 30.28 40.7772 30.28C41.4092 30.28 41.9812 30.42 42.4932 30.7C43.0052 30.98 43.4092 31.38 43.7052 31.9C44.0012 32.42 44.1492 33.016 44.1492 33.688C44.1492 34.36 43.9972 34.956 43.6932 35.476C43.3892 35.996 42.9732 36.4 42.4452 36.688C41.9252 36.968 41.3492 37.108 40.7172 37.108ZM40.7172 35.92C41.0692 35.92 41.3972 35.836 41.7012 35.668C42.0132 35.5 42.2652 35.248 42.4572 34.912C42.6492 34.576 42.7452 34.168 42.7452 33.688C42.7452 33.208 42.6532 32.804 42.4692 32.476C42.2852 32.14 42.0412 31.888 41.7372 31.72C41.4332 31.552 41.1052 31.468 40.7532 31.468C40.4012 31.468 40.0732 31.552 39.7692 31.72C39.4732 31.888 39.2372 32.14 39.0612 32.476C38.8852 32.804 38.7972 33.208 38.7972 33.688C38.7972 34.4 38.9772 34.952 39.3372 35.344C39.7052 35.728 40.1652 35.92 40.7172 35.92Z" fill="white"/>
</svg>
