<svg width="24" height="48" viewBox="0 0 24 48" fill="none" xmlns="http://www.w3.org/2000/svg">
<path d="M0.940342 5.06006C0.792969 4.92274 0.674765 4.75714 0.592781 4.57314C0.510798 4.38914 0.466715 4.19051 0.463161 3.98911C0.459608 3.7877 0.496656 3.58764 0.572098 3.40087C0.647539 3.21409 0.75983 3.04442 0.902267 2.90199C1.0447 2.75955 1.21437 2.64726 1.40115 2.57182C1.58793 2.49637 1.78798 2.45932 1.98939 2.46288C2.19079 2.46643 2.38942 2.51051 2.57342 2.5925C2.75742 2.67448 2.92302 2.79269 3.06034 2.94006L23.0603 22.9401C23.3412 23.2213 23.499 23.6026 23.499 24.0001C23.499 24.3976 23.3412 24.7788 23.0603 25.0601L3.06034 45.0601C2.776 45.325 2.3999 45.4693 2.0113 45.4624C1.6227 45.4556 1.25193 45.2981 0.9771 45.0233C0.702274 44.7485 0.544851 44.3777 0.537994 43.9891C0.531137 43.6005 0.675383 43.2244 0.940342 42.9401L19.8778 24.0001L0.940342 5.06006Z" fill="#5865F2"/>
</svg>
