<svg width="24" height="24" viewBox="0 0 24 24" fill="none" xmlns="http://www.w3.org/2000/svg">
<path fill-rule="evenodd" clip-rule="evenodd" d="M12 3.75001C11.0397 3.75003 10.109 4.08269 9.36628 4.69143C8.62355 5.30017 8.11461 6.14739 7.92601 7.08901L6.99751 11.733C6.72063 13.1195 6.03952 14.393 5.04001 15.393L4.74901 15.6825C4.64134 15.7896 4.56438 15.9237 4.52614 16.0706C4.48791 16.2176 4.4898 16.3722 4.53163 16.5182C4.57345 16.6642 4.65368 16.7963 4.76394 16.9007C4.8742 17.0052 5.01046 17.0781 5.15851 17.112L6.39001 17.397C10.0815 18.249 13.9185 18.249 17.61 17.397L18.84 17.112C18.9879 17.0779 19.1239 17.0049 19.2341 16.9005C19.3442 16.7961 19.4244 16.6641 19.4663 16.5183C19.5083 16.3724 19.5104 16.218 19.4726 16.071C19.4347 15.9241 19.3582 15.7899 19.251 15.6825L18.96 15.393C17.9605 14.393 17.2794 13.1195 17.0025 11.733L16.9005 11.2275C16.8418 10.9349 16.9018 10.631 17.0672 10.3826C17.2326 10.1342 17.4899 9.96169 17.7825 9.90301C18.0751 9.84433 18.379 9.90429 18.6274 10.0697C18.8758 10.2351 19.0483 10.4924 19.107 10.785L19.209 11.292C19.398 12.243 19.866 13.116 20.5515 13.8015L20.8425 14.0925C21.2341 14.4837 21.5137 14.9726 21.6524 15.5085C21.7911 16.0443 21.7837 16.6075 21.6311 17.1395C21.4784 17.6716 21.1861 18.153 20.7844 18.5338C20.3827 18.9146 19.8864 19.1809 19.347 19.305L18.1155 19.59C17.064 19.83 16.0005 20.01 14.9355 20.127C14.7929 20.7996 14.4235 21.4029 13.8893 21.8357C13.3551 22.2685 12.6883 22.5047 12.0008 22.5047C11.3132 22.5047 10.6465 22.2685 10.1122 21.8357C9.57798 21.4029 9.20863 20.7996 9.06601 20.127C7.99629 20.0106 6.93442 19.8307 5.88601 19.5885L4.65301 19.3035C4.11419 19.1788 3.61854 18.9123 3.21742 18.5316C2.8163 18.1508 2.52433 17.6697 2.37177 17.1381C2.2192 16.6065 2.21161 16.0438 2.34977 15.5083C2.48793 14.9728 2.76681 14.4839 3.15751 14.0925L3.45001 13.8C4.13551 13.1145 4.60351 12.24 4.79251 11.2905L5.72251 6.64651C5.89717 5.7739 6.25176 4.94726 6.76366 4.21931C7.27556 3.49136 7.93354 2.87807 8.69564 2.41855C9.45774 1.95903 10.3072 1.66337 11.19 1.55042C12.0727 1.43746 12.9693 1.50969 13.8225 1.76251C13.9641 1.80456 14.0961 1.8741 14.2109 1.96716C14.3256 2.06021 14.4209 2.17496 14.4913 2.30484C14.5617 2.43473 14.6059 2.57721 14.6212 2.72416C14.6366 2.8711 14.6228 3.01963 14.5808 3.16126C14.5387 3.30289 14.4692 3.43485 14.3761 3.5496C14.2831 3.66436 14.1683 3.75966 14.0384 3.83007C13.9085 3.90048 13.7661 3.94462 13.6191 3.95997C13.4722 3.97531 13.3236 3.96156 13.182 3.91951C12.7982 3.80631 12.4001 3.74922 12 3.75001Z" fill="black"/>
<path fill-rule="evenodd" clip-rule="evenodd" d="M18.75 8.25C19.5456 8.25 20.3087 7.93393 20.8713 7.37132C21.4339 6.80871 21.75 6.04565 21.75 5.25C21.75 4.45435 21.4339 3.69129 20.8713 3.12868C20.3087 2.56607 19.5456 2.25 18.75 2.25C17.9544 2.25 17.1913 2.56607 16.6287 3.12868C16.0661 3.69129 15.75 4.45435 15.75 5.25C15.75 6.04565 16.0661 6.80871 16.6287 7.37132C17.1913 7.93393 17.9544 8.25 18.75 8.25Z" fill="black"/>
</svg>
